# xmcd
#
# Track frame offsets: 
#        150
#        16230
#        42799
#        68991
#        95128
#        111018
#        139097
#        170577
#        190855
#        214167
#        236556
#        263218
#        291033
#
# Disc length: 4169 seconds
#
# Revision: 0
# Processed by: cddbd v1.5.2PL0 Copyright (c) Steve Scherf et al.
# Submitted via: ExactAudioCopyFreeDBPlugin 1.0
#
DISCID=bd10470d
DTITLE=群星 - 小苹果[电音舞曲]
DYEAR=2014
DGENRE=Acid
TTITLE0=筷子兄弟 - 小苹果
TTITLE1=祁隆 - 跳到北京
TTITLE2=龙梅子VS杨海彪 - 寂寞的人伤心的歌
TTITLE3=冷漠VS张冬玲 - 我在红尘中遇见你
TTITLE4=Ylvis - The Fox(狐狸叫)
TTITLE5=庄心妍 - 摇摆Style
TTITLE6=苏月 - 月亮传奇
TTITLE7=王紫菲VS赵真 - 中国好姑娘
TTITLE8=张津涤 - 一百个放心
TTITLE9=刘凯名 - 爱上你是我的错
TTITLE10=祁隆VS千百惠 - 我们的幸福呢
TTITLE11=唐古 - 你牛什么牛
TTITLE12=萧全VS庄心妍 - 爱音乐
EXTD=
EXTT0=
EXTT1=
EXTT2=
EXTT3=
EXTT4=
EXTT5=
EXTT6=
EXTT7=
EXTT8=
EXTT9=
EXTT10=
EXTT11=
EXTT12=
PLAYORDER=
